<svg width="40" height="40" viewBox="0 0 40 40" fill="none" xmlns="http://www.w3.org/2000/svg">
    <path d="M8.28269 12.6028C14.7659 6.25381 25.2749 6.25381 31.7666 12.6028L32.5466 13.3661C32.8737 13.6848 32.8737 14.1964 32.5466 14.5151L29.8795 17.1319C29.7201 17.2912 29.4517 17.2912 29.2924 17.1319L28.2188 16.0835C23.6982 11.6551 16.3595 11.6551 11.8388 16.0835L10.6898 17.2074C10.5304 17.3667 10.262 17.3667 10.1027 17.2074L7.4272 14.5906C7.10011 14.2719 7.10011 13.7603 7.4272 13.4415L8.28269 12.6028ZM37.2853 18.0041L39.6588 20.3274C39.9859 20.6461 39.9859 21.1577 39.6588 21.4764L28.9485 31.9686C28.6214 32.2874 28.1014 32.2874 27.7743 31.9686L20.1672 24.5209C20.0833 24.4454 19.9575 24.4454 19.8737 24.5209L12.2749 31.9686C11.9478 32.2874 11.4278 32.2874 11.1008 31.9686L0.382041 21.4848C0.0549446 21.1661 0.0549446 20.6545 0.382041 20.3357L2.75559 18.0125C3.08269 17.6938 3.60269 17.6938 3.92978 18.0125L11.5369 25.4603C11.6208 25.5357 11.7466 25.5357 11.8304 25.4603L19.4291 18.0125C19.7562 17.6938 20.2762 17.6938 20.6033 18.0125L28.2104 25.4603C28.2943 25.5357 28.4201 25.5357 28.504 25.4603L36.1111 18.0125C36.4298 17.6854 36.9582 17.6854 37.2853 18.0041Z" fill="#3A99FB" />
</svg>    